PathFileType	4	(X/Y/Z)	./resultDataOpenSim/trcMotMarkerGrf/sub09/qtm-13-07.trc
DataRate	CameraRate	NumFrames	NumMarkers	Units	OrigDataRate	OrigDataStartFrame	OrigNumFrames
250.000000	250.000000	8	24	m	250.000000	363	483
Frame#	Time	L.Toe.Tip			R.Toe.Tip			L.Ankle.Lat			R.Ankle.Lat			L.Ankle.Med			R.Ankle.Med			L.Heel			R.Heel			L.Knee.Lat			R.Knee.Lat			L.Knee.Med			R.Knee.Med			L.Thigh.Upper			R.Thigh.Upper			L.ASIS			R.ASIS			V.Sacral			L.Acromium			R.Acromium			C7			L.Elbow			R.Elbow			L.Wrist.Lat			R.Wrist.Lat
		X1	Y1	Z1	X2	Y2	Z2	X3	Y3	Z3	X4	Y4	Z4	X5	Y5	Z5	X6	Y6	Z6	X7	Y7	Z7	X8	Y8	Z8	X9	Y9	Z9	X10	Y10	Z10	X11	Y11	Z11	X12	Y12	Z12	X13	Y13	Z13	X14	Y14	Z14	X15	Y15	Z15	X16	Y16	Z16	X17	Y17	Z17	X18	Y18	Z18	X19	Y19	Z19	X20	Y20	Z20	X21	Y21	Z21	X22	Y22	Z22	X23	Y23	Z23	X24	Y24	Z24

363	1.448	0.93494444	0.10124155	-0.075543191	1.0753217	0.038970078	0.050983018	0.84924057	0.22949622	-0.10957255	0.92940271	0.05635429	0.09068952	0.87565625	0.22234285	-0.014346834	0.9372452	0.095115074	-0.0016012456	0.76907945	0.24265333	-0.064859276	0.85787504	0.039304057	0.045469854	1.1421356	0.51426533	-0.1184748	1.0501038	0.49791315	0.14724259	1.1456188	0.50316289	0.0076163298	1.0226907	0.48986969	0.021562114	0.96495053	0.88908885	-0.15060377	0.97363043	0.89996582	0.22022511	1.0375795	0.97713766	-0.095065528	1.0589016	0.98444969	0.14123651	0.88190557	1.0392513	0.031913131	1.0584366	1.4230847	-0.15462297	1.0445585	1.4447015	0.17535925	0.98317022	1.486309	0.0087125725	0.90876917	1.0822562	-0.19152404	0.89781118	1.1026058	0.27143108	1.025353	0.84879098	-0.22575351	1.1117861	0.92171261	0.27322982
364	1.452	0.95375741	0.099938253	-0.076293282	1.0753908	0.038909121	0.050915805	0.86435236	0.22574786	-0.10930232	0.92951002	0.056597454	0.090553842	0.89158952	0.21879433	-0.014299588	0.93762543	0.095426699	-0.0015956169	0.78408345	0.23675841	-0.064270972	0.85828853	0.03954312	0.045530488	1.1513664	0.51693145	-0.11825463	1.0515158	0.49783964	0.14734559	1.1549189	0.50581375	0.0076253369	1.0240786	0.49000642	0.021636905	0.97130904	0.89029892	-0.15090942	0.97942886	0.90063733	0.21981993	1.043262	0.97831051	-0.095129159	1.064295	0.9851056	0.14119643	0.88726805	1.0401096	0.031778375	1.0634365	1.4239534	-0.15476466	1.0500965	1.4457054	0.17513181	0.98841079	1.4871881	0.0086596916	0.91292041	1.0836567	-0.19156458	0.9036105	1.1032653	0.27166665	1.0286216	0.84982699	-0.22674438	1.1193689	0.9243943	0.27207733
365	1.456	0.97268385	0.098616593	-0.076948068	1.0755251	0.03886965	0.050816935	0.87959766	0.22185218	-0.10903383	0.92963156	0.056857146	0.090403663	0.90737959	0.21518745	-0.014175472	0.93807751	0.095787734	-0.0015801824	0.79926792	0.2306979	-0.063764674	0.85856321	0.039817568	0.045393074	1.1605343	0.51944251	-0.11804951	1.0529266	0.49777512	0.14748198	1.1640765	0.50835339	0.0075966829	1.0258528	0.48999695	0.021924654	0.97769058	0.89142911	-0.15128422	0.98497437	0.90127458	0.21943713	1.0489555	0.97939444	-0.095207373	1.0696837	0.98571877	0.14114712	0.89267978	1.0408594	0.031578598	1.0684268	1.4247685	-0.15490815	1.0555612	1.4466307	0.17496387	0.99364148	1.4880081	0.0085950282	0.91718359	1.0850625	-0.19153628	0.90940844	1.103873	0.27191246	1.0319344	0.85081788	-0.22772539	1.1269126	0.92699795	0.270918
366	1.46	0.99162673	0.097278014	-0.077518409	1.0757356	0.038855171	0.05068261	0.89497263	0.21782117	-0.10876509	0.92976562	0.057130974	0.090224243	0.92317065	0.21152882	-0.014015509	0.93841642	0.096127296	-0.001657623	0.81458893	0.22448242	-0.063307963	0.85868658	0.040145269	0.045044743	1.1695403	0.52182323	-0.11790873	1.0543374	0.49772348	0.14765948	1.1730897	0.5107773	0.0075310235	1.0278278	0.48986902	0.022289545	0.98402302	0.89247332	-0.15171325	0.99022302	0.90189016	0.21908472	1.0546641	0.98039215	-0.095292752	1.0750571	0.98629161	0.14109445	0.89813111	1.0414823	0.03132962	1.0734075	1.4255302	-0.15505404	1.0610013	1.4474838	0.17482013	0.99887273	1.4887685	0.0085270747	0.92152263	1.0864619	-0.19142481	0.91521075	1.104425	0.27216631	1.0352863	0.85176111	-0.22869411	1.1344293	0.92953024	0.26974531
367	1.464	1.0105015	0.095915524	-0.077988739	1.0759855	0.03885541	0.050533792	0.9104807	0.21366805	-0.10850041	0.92989899	0.057409897	0.090004206	0.93906199	0.20782246	-0.013830469	0.9384058	0.096382429	-0.0018830021	0.83005533	0.21812327	-0.06289311	0.85872826	0.040521622	0.044584556	1.1783087	0.52407787	-0.11786945	1.0557745	0.49767607	0.1478866	1.1819568	0.51308095	0.0074290148	1.0297318	0.48972802	0.022600039	0.99018775	0.89342435	-0.15214913	0.99527197	0.90248078	0.2187919	1.0603829	0.98130436	-0.095379753	1.0804139	0.98682253	0.14104135	0.9035995	1.0419758	0.031044481	1.078383	1.4262419	-0.15520463	1.0664385	1.4482884	0.17468849	1.004116	1.4894751	0.0084679869	0.92585392	1.0877854	-0.19128662	0.92101598	1.104914	0.27242106	1.0386754	0.85265176	-0.22964404	1.1419202	0.93199416	0.26856044
368	1.468	1.0293009	0.094537505	-0.078323609	1.0762163	0.038858264	0.05040176	0.92613732	0.20940601	-0.10824836	0.93001551	0.057691506	0.089744839	0.95505705	0.20407543	-0.013615086	0.93816188	0.09659886	-0.0022074543	0.84568916	0.21163082	-0.06251524	0.85877304	0.040957196	0.044125681	1.1868424	0.5261929	-0.11792809	1.057248	0.4976542	0.14813756	1.1906761	0.51525982	0.007291314	1.0314016	0.48967481	0.02283363	0.99611754	0.89427881	-0.15255382	1.0001964	0.90302175	0.21862913	1.0661083	0.98212962	-0.095467895	1.0857547	0.98731186	0.14098987	0.90907741	1.0423834	0.03073025	1.0833591	1.4269116	-0.15537091	1.0718723	1.4490767	0.17457398	1.0093728	1.4901353	0.008425473	0.93012233	1.0889608	-0.19121271	0.92682073	1.1053352	0.27267209	1.0421062	0.85348759	-0.23057066	1.149368	0.93438249	0.26737246
369	1.472	1.0481082	0.093172289	-0.078498886	1.0763832	0.038856774	0.050307417	0.94195337	0.20504264	-0.10801086	0.93009856	0.057987529	0.089466534	0.97111717	0.2003006	-0.013380814	0.93805477	0.096884556	-0.0025207998	0.86149425	0.20502286	-0.062156708	0.85885426	0.04145824	0.043705788	1.1951884	0.52815889	-0.11805122	1.0587449	0.49767803	0.14834937	1.199246	0.5173094	0.0071185795	1.0328284	0.48975529	0.023030445	1.001873	0.89503808	-0.15291504	1.0050133	0.90349675	0.2186287	1.0718425	0.98286859	-0.095561437	1.0910758	0.98776308	0.14094747	0.91456125	1.0427695	0.030394733	1.0883394	1.4275503	-0.15557033	1.0773055	1.4498542	0.17446842	1.0146368	1.4907551	0.0083931039	0.93434951	1.0899788	-0.19124045	0.93262254	1.1056875	0.2729181	1.0455849	0.85426863	-0.23147655	1.1567504	0.9366846	0.26618945
370	1.476	1.0670104	0.091843841	-0.078527589	1.0764641	0.038849099	0.050261249	0.95791455	0.20057723	-0.10777084	0.93013822	0.058315145	0.089196295	0.98724057	0.1965133	-0.013163103	0.93826584	0.097276008	-0.0027428904	0.8774719	0.19832985	-0.06180664	0.85893251	0.042010335	0.04326454	1.2033795	0.52997788	-0.11821085	1.0602634	0.49772398	0.14849632	1.2076646	0.51922517	0.0069114726	1.0341202	0.48996474	0.02321161	1.0075812	0.89570662	-0.15323594	1.009744	0.90392605	0.21871334	1.0775954	0.98352464	-0.095665027	1.0963705	0.9881773	0.14092643	0.92004339	1.0431617	0.030048109	1.0933243	1.4281597	-0.15580517	1.0827432	1.4505779	0.17435269	1.0198966	1.4913322	0.00835315	0.93858896	1.0908759	-0.19134397	0.93842091	1.1059723	0.2731565	1.0491124	0.85499415	-0.23236898	1.1640595	0.93889541	0.26501168
